<?xml version="1.0" encoding="utf-8"?>
<!-- Generator: Adobe Illustrator 23.0.3, SVG Export Plug-In . SVG Version: 6.00 Build 0)  -->
<svg version="1.1" id="Layer_1" xmlns="http://www.w3.org/2000/svg" xmlns:xlink="http://www.w3.org/1999/xlink" x="0px" y="0px"
	 viewBox="0 0 36.8 33.1" style="enable-background:new 0 0 36.8 33.1;" xml:space="preserve">
<style type="text/css">
	.st0{fill-rule:evenodd;clip-rule:evenodd;fill:#FFFFFF;}
</style>
<path class="st0" d="M26.4,15.2c0.6-0.6,1.4-0.9,2.3-0.9c1.9,0,3.5,1.5,3.5,3.5c0,1.9-1.5,3.5-3.5,3.5c-0.9,0-1.7-0.3-2.3-0.9
	c-0.6,0.6-1.4,0.9-2.3,0.9c-1.9,0-3.5-1.5-3.5-3.5c0-1.9,1.5-3.5,3.5-3.5C25,14.2,25.8,14.6,26.4,15.2z M36.8,5c0,0,0,16,0,18.4
	c0,2.4-2.3,2.2-2.3,2.2h-16v-2.3h15.9V12H4.7c0,0,0-4.2,0-6.8c0-2.6,2.4-2.4,2.4-2.4s24.6,0,27.2,0C36.9,2.8,36.8,5,36.8,5z
	 M34.5,5.1H7v2.2h27.5V5.1z M16.1,22.2c0,4.4-3.6,8.1-8.1,8.1S0,26.7,0,22.2s3.6-8.1,8.1-8.1S16.1,17.8,16.1,22.2z M4,21.5L2.5,23
	l4,4.1l7.2-7.2l-1.6-1.7l-5.7,5.8L4,21.5z"/>
</svg>
