<?xml version="1.0" encoding="utf-8"?>
<!-- Generator: Adobe Illustrator 23.0.3, SVG Export Plug-In . SVG Version: 6.00 Build 0)  -->
<svg version="1.1" id="Layer_1" xmlns="http://www.w3.org/2000/svg" xmlns:xlink="http://www.w3.org/1999/xlink" x="0px" y="0px"
	 viewBox="0 0 29.6 33.1" style="enable-background:new 0 0 29.6 33.1;" xml:space="preserve">
<style type="text/css">
	.st0{fill-rule:evenodd;clip-rule:evenodd;fill:#FFFFFF;}
</style>
<path class="st0" d="M14.8,33.1c0,0-17.1-0.9-14.5-26.9c0,0-0.3-1,1.1-1.5c1.4-0.5,12.3-4.5,12.3-4.5s0.8-0.5,2.4,0
	c1.6,0.5,12.2,4.4,12.2,4.4s1,0,1.1,1.4C29.4,7.4,32.5,30.5,14.8,33.1z M27.2,6.6L14.8,2L2.4,6.5C0,29.9,14.7,30.9,14.7,30.9
	C30.4,28.3,27.2,6.6,27.2,6.6z M19.6,23.2H10c-0.8,0-1.4-0.6-1.4-1.4v-6.5c0-0.8,0.6-1.4,1.4-1.4h0.5v-3.3c0,0,0.1-3,3-3
	c2.7,0,2.8,0,2.8,0c0,0,2.7,0.1,2.7,3c0,1.8,0,2.8,0,3.2h0.5c0.8,0,1.4,0.6,1.4,1.4v6.5C21,22.6,20.3,23.2,19.6,23.2z M14.2,18.3
	v2.4c0,0.2,0.2,0.4,0.4,0.4h0.5c0.2,0,0.4-0.2,0.4-0.4v-2.4c0.4-0.2,0.6-0.6,0.6-1.1c0-0.7-0.6-1.3-1.3-1.3s-1.3,0.6-1.3,1.3
	C13.5,17.7,13.8,18.1,14.2,18.3z M16,9.7c-1.3,0-2.4,0-2.4,0s-1-0.1-1,1c0,1.1,0,3.1,0,3.1H17v-3.1C17,10.8,17.2,9.7,16,9.7z"/>
</svg>
