<?xml version="1.0" encoding="utf-8"?>
<!-- Generator: Adobe Illustrator 23.0.3, SVG Export Plug-In . SVG Version: 6.00 Build 0)  -->
<svg version="1.1" id="Layer_1" xmlns="http://www.w3.org/2000/svg" xmlns:xlink="http://www.w3.org/1999/xlink" x="0px" y="0px"
	 viewBox="0 0 33 33.1" style="enable-background:new 0 0 33 33.1;" xml:space="preserve">
<style type="text/css">
	.st0{fill-rule:evenodd;clip-rule:evenodd;fill:#FFFFFF;}
</style>
<path class="st0" d="M29.8,19.7c-1.7,0-3.1-1.4-3.1-3.1s1.4-3.1,3.1-3.1s3.1,1.4,3.1,3.1S31.6,19.7,29.8,19.7z M25.9,10.1
	c-1.7,0-3.1-1.4-3.1-3.1s1.4-3.1,3.1-3.1s3.1,1.4,3.1,3.1S27.7,10.1,25.9,10.1z M23.9,11.6L23,12.8c0.3,0.5,0.5,1.1,0.7,1.7
	c0.3,0,0.8,0.1,1.2,0.2c0.6,0.1,0.5,0.6,0.5,0.6s0,1.7,0,2.4c0,0.7-0.4,0.7-0.4,0.7l-1.4,0.3c-0.2,0.6-0.4,1.1-0.7,1.7
	c0.1,0.2,0.5,0.7,0.7,1.1c0.2,0.4-0.1,0.7-0.1,0.7s-1.4,1.5-1.8,1.9c-0.4,0.4-0.8,0.1-0.8,0.1l-1-0.8c-0.5,0.3-1,0.5-1.5,0.6
	c0,0.2-0.1,0.9-0.2,1.4c-0.1,0.6-0.5,0.5-0.5,0.5s-2.3,0-2.7,0c-0.4,0-0.5-0.4-0.5-0.4l-0.3-1.5c-0.5-0.1-0.9-0.3-1.4-0.6
	c-0.3,0.2-0.9,0.6-1.2,0.8c-0.4,0.3-0.7-0.1-0.7-0.1S9.6,22.4,9.2,22c-0.4-0.4-0.1-0.7-0.1-0.7l0.8-1.1c-0.3-0.5-0.5-1-0.7-1.6
	c-0.3,0-1-0.1-1.4-0.2c-0.5-0.1-0.4-0.4-0.4-0.4s-0.1-2.1-0.1-2.7c0-0.6,0.5-0.6,0.5-0.6l1.4-0.3c0.2-0.5,0.4-1.1,0.7-1.6
	c-0.2-0.2-0.6-0.8-0.8-1.1c-0.3-0.3,0-0.8,0-0.8s1.4-1.5,1.8-1.8s0.8-0.1,0.8-0.1l1.2,0.8c0.5-0.3,1-0.5,1.5-0.6
	c0-0.3,0.1-0.9,0.1-1.3c0.1-0.5,0.6-0.5,0.6-0.5s2,0,2.5,0c0.6,0,0.6,0.6,0.6,0.6l0.2,1.3c0.5,0.1,1,0.4,1.5,0.6
	c0.3-0.2,0.9-0.6,1.2-0.8C21.6,8.9,22,9.2,22,9.2s1.2,1.3,1.7,1.8C24.1,11.4,23.9,11.6,23.9,11.6z M16.5,12.8c-2,0-3.7,1.6-3.7,3.7
	s1.6,3.7,3.7,3.7s3.7-1.6,3.7-3.7S18.5,12.8,16.5,12.8z M16.5,6.3c-1.7,0-3.1-1.4-3.1-3.1S14.8,0,16.5,0s3.1,1.4,3.1,3.1
	S18.3,6.3,16.5,6.3z M7,10.2c-1.7,0-3.1-1.4-3.1-3.1S5.3,3.9,7,3.9s3.1,1.4,3.1,3.1S8.8,10.2,7,10.2z M6.3,16.5
	c0,1.7-1.4,3.1-3.1,3.1S0,18.2,0,16.5s1.4-3.1,3.1-3.1S6.3,14.7,6.3,16.5z M7.1,22.8c1.7,0,3.1,1.4,3.1,3.1c0,1.7-1.4,3.1-3.1,3.1
	S4,27.7,4,26C4,24.2,5.4,22.8,7.1,22.8z M16.5,26.8c1.7,0,3.1,1.4,3.1,3.1s-1.4,3.1-3.1,3.1s-3.1-1.4-3.1-3.1S14.7,26.8,16.5,26.8z
	 M26,22.8c1.7,0,3.1,1.4,3.1,3.1c0,1.7-1.4,3.1-3.1,3.1s-3.1-1.4-3.1-3.1C22.8,24.2,24.2,22.8,26,22.8z"/>
</svg>
