<?xml version="1.0" encoding="utf-8"?>
<!-- Generator: Adobe Illustrator 23.0.3, SVG Export Plug-In . SVG Version: 6.00 Build 0)  -->
<svg version="1.1" id="Layer_1" xmlns="http://www.w3.org/2000/svg" xmlns:xlink="http://www.w3.org/1999/xlink" x="0px" y="0px"
	 viewBox="0 0 27.5 33.1" style="enable-background:new 0 0 27.5 33.1;" xml:space="preserve">
<style type="text/css">
	.st0{fill-rule:evenodd;clip-rule:evenodd;fill:#FFFFFF;}
</style>
<path class="st0" d="M26.5,24.6c-1.8,0-9.1,0-9.1,0l-5.3,7.8c0,0-1.1,1.6-1.2-0.3V11.7c0,0-0.1-1.3,1.1-0.4S27,23.4,27,23.4
	S28.3,24.6,26.5,24.6z M20.8,15.8c0.6-1.3,0.9-2.7,0.9-4.2c0-5.6-4.5-10.2-10.2-10.2S1.4,6,1.4,11.6c0,4.5,3,8.4,7,9.7
	c-0.1,0.2-0.4,1.1-0.5,1.3c-4.6-1.5-8-5.9-8-11C0,5.2,5.2,0.1,11.6,0.1s11.6,5.2,11.6,11.6c0,1.7-0.4,3.3-1,4.8L20.8,15.8z"/>
</svg>
